<?xml version="1.0" encoding="UTF-8" standalone="no"?>
<!DOCTYPE svg PUBLIC "-//W3C//DTD SVG 1.1//EN" "http://www.w3.org/Graphics/SVG/1.1/DTD/svg11.dtd">
<svg width="25" height="18" xmlns="http://www.w3.org/2000/svg">
    <g fill="none">
        <path fill="#00247D" d="M0 0v18h25V0z"/>
        <path fill="#FFF" d="M3.209 0L25 15.69V18h-3.209L0 2.31V0h3.209zM25 2.31L3.209 18H0v-2.31L21.791 0H25v2.31z"/>
        <path fill="#CF142B"
              d="M10.36 9L0 1.54V0l12.5 9h-2.14zm4.28 0L25 16.46V18L12.5 9h2.14zm-2.14 1.54L2.14 18H0l12.5-9v1.54zm0-3.08L22.86 0H25L12.5 9V7.46z"/>
        <path fill="#FFF" d="M15.625 5.875H25v6.25h-9.375V18h-6.25v-5.875H0v-6.25h9.375V0h6.25z"/>
        <path fill="#CF142B" d="M14.375 7.125H25v3.75H14.375V18h-3.75v-7.125H0v-3.75h10.625V0h3.75z"/>
    </g>
</svg>
